<svg xmlns="http://www.w3.org/2000/svg" viewBox="0 0 400 300" fill="none"><rect width="400" height="300" fill="#0d1117"/><rect x="20" y="20" width="360" height="260" rx="16" fill="#161b22" stroke="#21262d" stroke-width="1.5"/><circle cx="200" cy="90" r="45" fill="#238636" opacity="0.15"/><path d="M180 90 C180 78 190 70 200 70 C210 70 220 78 220 90 C220 102 210 110 200 110 C190 110 180 102 180 90Z" fill="#2ea043" opacity="0.8"/><path d="M200 70 L200 110 M180 90 L220 90" stroke="#3fb950" stroke-width="2" stroke-dasharray="4 2"/><circle cx="200" cy="90" r="45" stroke="#238636" stroke-width="2" stroke-dasharray="8 4" fill="none"/><text x="200" y="160" text-anchor="middle" font-family="monospace" font-size="13" fill="#3fb950">YOLOv8 Detection</text><rect x="40" y="180" width="100" height="60" rx="8" fill="#21262d" stroke="#30363d" stroke-width="1"/><text x="90" y="205" text-anchor="middle" font-size="10" fill="#8b949e" font-family="monospace">YOLO</text><text x="90" y="222" text-anchor="middle" font-size="9" fill="#58a6ff" font-family="monospace">Roboflow</text><rect x="150" y="180" width="100" height="60" rx="8" fill="#21262d" stroke="#30363d" stroke-width="1"/><text x="200" y="205" text-anchor="middle" font-size="10" fill="#8b949e" font-family="monospace">Power BI</text><text x="200" y="222" text-anchor="middle" font-size="9" fill="#f7a740" font-family="monospace">Analytics</text><rect x="260" y="180" width="100" height="60" rx="8" fill="#21262d" stroke="#30363d" stroke-width="1"/><text x="310" y="205" text-anchor="middle" font-size="10" fill="#8b949e" font-family="monospace">OpenCV</text><text x="310" y="222" text-anchor="middle" font-size="9" fill="#79c0ff" font-family="monospace">CV Pipeline</text><text x="200" y="270" text-anchor="middle" font-size="11" fill="#484f58" font-family="monospace">Biomedical Waste Segregation</text></svg>
